NotoSansAdlam-Regular.ufo
<glyph name="less" format="2">
  <advance width="558"/>
  <unicode hex="003C"/>
  <outline>
    <contour>
      <point x="514" y="116" type="line"/>
      <point x="514" y="194" type="line"/>
      <point x="137" y="352" type="line"/>
      <point x="514" y="530" type="line"/>
      <point x="514" y="608" type="line"/>
      <point x="43" y="373" type="line"/>
      <point x="43" y="323" type="line"/>
    </contour>
  </outline>
</glyph>
<glyph name="asciicircum" format="2">
  <advance width="542"/>
  <unicode hex="005E"/>
  <outline>
    <contour>
      <point x="23" y="267" type="line"/>
      <point x="101" y="267" type="line"/>
      <point x="261" y="626" type="line"/>
      <point x="441" y="267" type="line"/>
      <point x="519" y="267" type="line"/>
      <point x="285" y="719" type="line"/>
      <point x="235" y="719" type="line"/>
    </contour>
  </outline>
</glyph>
<glyph name="acute" format="2">
  <advance width="281"/>
  <unicode hex="00B4"/>
  <note>
acute
</note>
  <outline>
    <contour>
      <point x="40" y="606" type="line"/>
      <point x="98" y="606" type="line"/>
      <point x="141.768" y="638.826"/>
      <point x="214.855" y="719.799"/>
      <point x="241" y="756" type="curve"/>
      <point x="241" y="766" type="line"/>
      <point x="135" y="766" type="line"/>
      <point x="116.363" y="728.727"/>
      <point x="64.482" y="649.477"/>
      <point x="40" y="618" type="curve"/>
    </contour>
  </outline>
</glyph>
<glyph name="O-adlam" format="2">
  <advance width="726"/>
  <unicode hex="1E90C"/>
  <anchor x="359" y="0" name="bottom"/>
  <anchor x="374" y="663" name="top"/>
  <anchor x="409" y="557" name="vowellengthencomb-adlam.case"/>
  <outline>
    <contour>
      <point x="437" y="0" type="curve" smooth="yes"/>
      <point x="656" y="0" type="line"/>
      <point x="656" y="79" type="line"/>
      <point x="437" y="79" type="line" smooth="yes"/>
      <point x="344" y="79"/>
      <point x="170" y="114"/>
      <point x="170" y="360" type="curve" smooth="yes"/>
      <point x="170" y="550"/>
      <point x="263" y="645"/>
      <point x="382" y="645" type="curve" smooth="yes"/>
      <point x="499" y="645"/>
      <point x="546" y="559"/>
      <point x="571" y="510" type="curve"/>
      <point x="656" y="558" type="line"/>
      <point x="626" y="618"/>
      <point x="570" y="724"/>
      <point x="385" y="724" type="curve" smooth="yes"/>
      <point x="216" y="724"/>
      <point x="75" y="617"/>
      <point x="75" y="354" type="curve" smooth="yes"/>
      <point x="75" y="56"/>
      <point x="271" y="0"/>
    </contour>
  </outline>
</glyph>
<glyph name="Nun-adlam" format="2">
  <advance width="671"/>
  <unicode hex="1E910"/>
  <anchor x="339" y="663" name="top"/>
  <outline>
    <contour>
      <point x="274" y="0" type="curve" smooth="yes"/>
      <point x="385" y="0" type="line"/>
      <point x="385" y="79" type="line"/>
      <point x="286" y="79" type="line" smooth="yes"/>
      <point x="183" y="79"/>
      <point x="145" y="98"/>
      <point x="145" y="186" type="curve" smooth="yes"/>
      <point x="145" y="285"/>
      <point x="208" y="315"/>
      <point x="343" y="354" type="curve" smooth="yes"/>
      <point x="485" y="396"/>
      <point x="567" y="427"/>
      <point x="567" y="554" type="curve" smooth="yes"/>
      <point x="567" y="673"/>
      <point x="497" y="714"/>
      <point x="369" y="714" type="curve" smooth="yes"/>
      <point x="294" y="714" type="line" smooth="yes"/>
      <point x="163" y="714"/>
      <point x="110" y="645"/>
      <point x="94" y="617" type="curve"/>
      <point x="159" y="570" type="line"/>
      <point x="174" y="597"/>
      <point x="203" y="635"/>
      <point x="294" y="635" type="curve" smooth="yes"/>
      <point x="367" y="635" type="line" smooth="yes"/>
      <point x="443" y="635"/>
      <point x="477" y="609"/>
      <point x="477" y="554" type="curve" smooth="yes"/>
      <point x="477" y="480"/>
      <point x="422" y="460"/>
      <point x="286" y="419" type="curve" smooth="yes"/>
      <point x="140" y="374"/>
      <point x="55" y="324"/>
      <point x="55" y="177" type="curve" smooth="yes"/>
      <point x="55" y="41"/>
      <point x="129" y="0"/>
    </contour>
    <contour>
      <point x="505" y="-15" type="curve"/>
      <point x="576" y="38" type="line"/>
      <point x="562" y="52"/>
      <point x="548" y="72"/>
      <point x="548" y="129" type="curve" smooth="yes"/>
      <point x="548" y="333" type="line"/>
      <point x="458" y="333" type="line"/>
      <point x="458" y="111" type="line" smooth="yes"/>
      <point x="458" y="35"/>
      <point x="489" y="-4"/>
    </contour>
  </outline>
</glyph>
<glyph name="Nya-adlam" format="2">
  <advance width="696"/>
  <unicode hex="1E919"/>
  <anchor x="367" y="663" name="top"/>
  <outline>
    <contour>
      <point x="541" y="-52" type="line"/>
      <point x="631" y="-52" type="line"/>
      <point x="631" y="159" type="line" smooth="yes"/>
      <point x="631" y="374"/>
      <point x="536" y="396"/>
      <point x="366" y="439" type="curve" smooth="yes"/>
      <point x="236" y="472"/>
      <point x="191" y="488"/>
      <point x="191" y="550" type="curve" smooth="yes"/>
      <point x="191" y="606"/>
      <point x="231" y="635"/>
      <point x="321" y="635" type="curve" smooth="yes"/>
      <point x="391" y="635" type="line" smooth="yes"/>
      <point x="499" y="635"/>
      <point x="530" y="600"/>
      <point x="544" y="580" type="curve"/>
      <point x="606" y="638" type="line"/>
      <point x="590" y="661"/>
      <point x="546" y="714"/>
      <point x="392" y="714" type="curve" smooth="yes"/>
      <point x="321" y="714" type="line" smooth="yes"/>
      <point x="172" y="714"/>
      <point x="98" y="656"/>
      <point x="98" y="544" type="curve" smooth="yes"/>
      <point x="98" y="450"/>
      <point x="156" y="412"/>
      <point x="206" y="396" type="curve"/>
      <point x="206" y="391" type="line"/>
      <point x="146" y="369"/>
      <point x="65" y="308"/>
      <point x="65" y="186" type="curve" smooth="yes"/>
      <point x="65" y="48"/>
      <point x="158" y="0"/>
      <point x="295" y="0" type="curve" smooth="yes"/>
      <point x="471" y="0" type="line"/>
      <point x="471" y="79" type="line"/>
      <point x="295" y="79" type="line" smooth="yes"/>
      <point x="213" y="79"/>
      <point x="158" y="109"/>
      <point x="158" y="191" type="curve" smooth="yes"/>
      <point x="158" y="296"/>
      <point x="242" y="353"/>
      <point x="321" y="367" type="curve"/>
      <point x="480" y="333"/>
      <point x="541" y="312"/>
      <point x="541" y="158" type="curve" smooth="yes"/>
    </contour>
  </outline>
</glyph>
<glyph name="Kha-adlam" format="2">
  <advance width="773"/>
  <unicode hex="1E91D"/>
  <anchor x="441" y="663" name="top"/>
  <outline>
    <contour>
      <point x="110" y="0" type="line"/>
      <point x="200" y="0" type="line"/>
      <point x="199" y="321" type="line"/>
      <point x="386" y="321" type="line"/>
      <point x="386" y="118" type="line" smooth="yes"/>
      <point x="386" y="32"/>
      <point x="404" y="0"/>
      <point x="498" y="0" type="curve" smooth="yes"/>
      <point x="733" y="0" type="line"/>
      <point x="733" y="79" type="line"/>
      <point x="526" y="79" type="line" smooth="yes"/>
      <point x="485" y="79"/>
      <point x="476" y="95"/>
      <point x="476" y="137" type="curve" smooth="yes"/>
      <point x="476" y="321" type="line"/>
      <point x="627" y="321" type="line"/>
      <point x="627" y="400" type="line"/>
      <point x="476" y="400" type="line"/>
      <point x="476" y="558" type="line"/>
      <point x="386" y="558" type="line"/>
      <point x="386" y="400" type="line"/>
      <point x="199" y="400" type="line"/>
      <point x="199" y="576" type="line" smooth="yes"/>
      <point x="199" y="619"/>
      <point x="208" y="635"/>
      <point x="249" y="635" type="curve" smooth="yes"/>
      <point x="733" y="635" type="line"/>
      <point x="733" y="714" type="line"/>
      <point x="222" y="714" type="line" smooth="yes"/>
      <point x="128" y="714"/>
      <point x="110" y="683"/>
      <point x="110" y="597" type="curve" smooth="yes"/>
    </contour>
  </outline>
</glyph>
<glyph name="u-adlam" format="2">
  <advance width="727"/>
  <unicode hex="1E935"/>
  <anchor x="375" y="565" name="top"/>
  <outline>
    <contour>
      <point x="364" y="-10" type="curve" smooth="yes"/>
      <point x="548" y="-10"/>
      <point x="632" y="63"/>
      <point x="632" y="193" type="curve" smooth="yes"/>
      <point x="632" y="575" type="line"/>
      <point x="544" y="575" type="line"/>
      <point x="544" y="455" type="line" smooth="yes"/>
      <point x="544" y="429"/>
      <point x="538" y="426"/>
      <point x="492" y="402" type="curve" smooth="yes"/>
      <point x="461" y="386"/>
      <point x="449" y="379"/>
      <point x="440" y="372" type="curve"/>
      <point x="437" y="374" type="line"/>
      <point x="428" y="526"/>
      <point x="364" y="585"/>
      <point x="257" y="585" type="curve" smooth="yes"/>
      <point x="157" y="585"/>
      <point x="113" y="540"/>
      <point x="95" y="501" type="curve"/>
      <point x="95" y="216" type="line" smooth="yes"/>
      <point x="95" y="57"/>
      <point x="163" y="-10"/>
    </contour>
    <contour>
      <point x="233" y="82" type="curve"/>
      <point x="217" y="93"/>
      <point x="183" y="118"/>
      <point x="183" y="213" type="curve" smooth="yes"/>
      <point x="183" y="482" type="line"/>
      <point x="195" y="498"/>
      <point x="220" y="511"/>
      <point x="252" y="511" type="curve" smooth="yes"/>
      <point x="298" y="511"/>
      <point x="351" y="486"/>
      <point x="351" y="332" type="curve" smooth="yes"/>
      <point x="351" y="180"/>
      <point x="282" y="107"/>
    </contour>
    <contour>
      <point x="359" y="61" type="curve" smooth="yes"/>
      <point x="336" y="61"/>
      <point x="326" y="62"/>
      <point x="320" y="63" type="curve"/>
      <point x="320" y="68" type="line"/>
      <point x="365" y="98"/>
      <point x="398" y="147"/>
      <point x="422" y="229" type="curve" smooth="yes"/>
      <point x="441" y="295"/>
      <point x="443" y="307"/>
      <point x="503" y="337" type="curve" smooth="yes"/>
      <point x="525" y="348"/>
      <point x="531" y="351"/>
      <point x="541" y="358" type="curve"/>
      <point x="544" y="357" type="line"/>
      <point x="544" y="213" type="line" smooth="yes"/>
      <point x="544" y="113"/>
      <point x="507" y="61"/>
    </contour>
  </outline>
</glyph>
<glyph name="kpo-adlam" format="2">
  <advance width="639"/>
  <unicode hex="1E942"/>
  <anchor x="346" y="562" name="top"/>
  <outline>
    <contour>
      <point x="226" y="0" type="curve" smooth="yes"/>
      <point x="546" y="0" type="line"/>
      <point x="546" y="74" type="line"/>
      <point x="261" y="74" type="line" smooth="yes"/>
      <point x="205" y="74"/>
      <point x="198" y="86"/>
      <point x="198" y="140" type="curve" smooth="yes"/>
      <point x="198" y="416" type="line"/>
      <point x="210" y="451"/>
      <point x="261" y="511"/>
      <point x="350" y="511" type="curve" smooth="yes"/>
      <point x="427" y="511"/>
      <point x="468" y="465"/>
      <point x="468" y="381" type="curve" smooth="yes"/>
      <point x="468" y="287"/>
      <point x="409" y="252"/>
      <point x="355" y="252" type="curve" smooth="yes"/>
      <point x="314" y="252"/>
      <point x="284" y="270"/>
      <point x="275" y="278" type="curve"/>
      <point x="239" y="214" type="line"/>
      <point x="250" y="203"/>
      <point x="286" y="178"/>
      <point x="355" y="178" type="curve" smooth="yes"/>
      <point x="458" y="178"/>
      <point x="559" y="232"/>
      <point x="559" y="384" type="curve" smooth="yes"/>
      <point x="559" y="528"/>
      <point x="471" y="585"/>
      <point x="365" y="585" type="curve" smooth="yes"/>
      <point x="261" y="585"/>
      <point x="220" y="533"/>
      <point x="203" y="508" type="curve"/>
      <point x="198" y="510" type="line"/>
      <point x="198" y="575" type="line"/>
      <point x="110" y="575" type="line"/>
      <point x="110" y="119" type="line" smooth="yes"/>
      <point x="110" y="27"/>
      <point x="122" y="0"/>
    </contour>
  </outline>
</glyph>
<glyph name="Alif-adlam.isol" format="2">
  <advance width="715"/>
  <anchor x="365" y="663" name="gemconsonanttop"/>
  <anchor x="351" y="663" name="top"/>
  <anchor x="320" y="745" name="topAlif"/>
  <outline>
    <contour>
      <point x="358" y="-10" type="curve" smooth="yes"/>
      <point x="541" y="-10"/>
      <point x="640" y="89"/>
      <point x="640" y="213" type="curve" smooth="yes"/>
      <point x="640" y="311"/>
      <point x="591" y="352"/>
      <point x="566" y="366" type="curve"/>
      <point x="566" y="370" type="line"/>
      <point x="584" y="373"/>
      <point x="623" y="385"/>
      <point x="640" y="398" type="curve"/>
      <point x="613" y="471" type="line"/>
      <point x="591" y="458"/>
      <point x="519" y="433"/>
      <point x="434" y="433" type="curve" smooth="yes"/>
      <point x="371" y="433"/>
      <point x="322" y="442"/>
      <point x="299" y="453" type="curve"/>
      <point x="278" y="376" type="line"/>
      <point x="297" y="366"/>
      <point x="352" y="358"/>
      <point x="418" y="352" type="curve" smooth="yes"/>
      <point x="496" y="345"/>
      <point x="547" y="306"/>
      <point x="547" y="213" type="curve" smooth="yes"/>
      <point x="547" y="119"/>
      <point x="471" y="69"/>
      <point x="360" y="69" type="curve" smooth="yes"/>
      <point x="253" y="69"/>
      <point x="200" y="108"/>
      <point x="200" y="249" type="curve" smooth="yes"/>
      <point x="200" y="577" type="line" smooth="yes"/>
      <point x="200" y="619"/>
      <point x="209" y="635"/>
      <point x="249" y="635" type="curve" smooth="yes"/>
      <point x="540" y="635" type="line"/>
      <point x="543" y="639" type="line"/>
      <point x="497" y="714" type="line"/>
      <point x="222" y="714" type="line" smooth="yes"/>
      <point x="128" y="714"/>
      <point x="110" y="682"/>
      <point x="110" y="596" type="curve" smooth="yes"/>
      <point x="110" y="249" type="line" smooth="yes"/>
      <point x="110" y="56"/>
      <point x="180" y="-10"/>
    </contour>
  </outline>
</glyph>
<glyph name="Ba-adlam.init" format="2">
  <advance width="768"/>
  <anchor x="375" y="663" name="top"/>
  <outline>
    <contour>
      <point x="0" y="0" type="curve" smooth="yes"/>
      <point x="87" y="0" type="line" smooth="yes"/>
      <point x="182" y="0"/>
      <point x="200" y="32"/>
      <point x="200" y="118" type="curve" smooth="yes"/>
      <point x="200" y="272" type="line"/>
      <point x="230" y="262"/>
      <point x="308" y="253"/>
      <point x="351" y="253" type="curve"/>
      <point x="351" y="118" type="line" smooth="yes"/>
      <point x="351" y="32"/>
      <point x="369" y="0"/>
      <point x="464" y="0" type="curve" smooth="yes"/>
      <point x="713" y="0" type="line"/>
      <point x="713" y="74" type="line"/>
      <point x="491" y="74" type="line" smooth="yes"/>
      <point x="450" y="74"/>
      <point x="441" y="90"/>
      <point x="441" y="132" type="curve" smooth="yes"/>
      <point x="441" y="253" type="line"/>
      <point x="625" y="267"/>
      <point x="718" y="355"/>
      <point x="718" y="512" type="curve" smooth="yes"/>
      <point x="718" y="665"/>
      <point x="629" y="724"/>
      <point x="501" y="724" type="curve" smooth="yes"/>
      <point x="425" y="724"/>
      <point x="371" y="707"/>
      <point x="351" y="694" type="curve"/>
      <point x="351" y="332" type="line"/>
      <point x="305" y="333"/>
      <point x="227" y="346"/>
      <point x="200" y="357" type="curve"/>
      <point x="200" y="714" type="line"/>
      <point x="110" y="714" type="line"/>
      <point x="110" y="132" type="line" smooth="yes"/>
      <point x="110" y="90"/>
      <point x="101" y="74"/>
      <point x="60" y="74" type="curve" smooth="yes"/>
      <point x="-40" y="74" type="line"/>
      <point x="-40" y="48" type="line" smooth="yes"/>
      <point x="-40" y="12"/>
      <point x="-30" y="0"/>
    </contour>
    <contour>
      <point x="441" y="332" type="curve"/>
      <point x="441" y="636" type="line"/>
      <point x="451" y="641"/>
      <point x="473" y="645"/>
      <point x="501" y="645" type="curve" smooth="yes"/>
      <point x="568" y="645"/>
      <point x="625" y="608"/>
      <point x="625" y="506" type="curve" smooth="yes"/>
      <point x="625" y="393"/>
      <point x="563" y="343"/>
    </contour>
  </outline>
</glyph>
<glyph name="Chi-adlam.medi" format="2">
  <advance width="730"/>
  <anchor x="362" y="663" name="top"/>
  <outline>
    <contour>
      <point x="0" y="0" type="curve" smooth="yes"/>
      <point x="459" y="0" type="line"/>
      <point x="459" y="74" type="line"/>
      <point x="327" y="74" type="line" smooth="yes"/>
      <point x="243" y="74"/>
      <point x="174" y="105"/>
      <point x="174" y="209" type="curve" smooth="yes"/>
      <point x="174" y="336"/>
      <point x="250" y="397"/>
      <point x="362" y="397" type="curve" smooth="yes"/>
      <point x="465" y="397"/>
      <point x="512" y="352"/>
      <point x="530" y="326" type="curve"/>
      <point x="530" y="118" type="line" smooth="yes"/>
      <point x="530" y="32"/>
      <point x="548" y="0"/>
      <point x="643" y="0" type="curve" smooth="yes"/>
      <point x="730" y="0" type="line" smooth="yes"/>
      <point x="760" y="0"/>
      <point x="770" y="12"/>
      <point x="770" y="48" type="curve" smooth="yes"/>
      <point x="770" y="74" type="line"/>
      <point x="670" y="74" type="line" smooth="yes"/>
      <point x="629" y="74"/>
      <point x="620" y="90"/>
      <point x="620" y="132" type="curve" smooth="yes"/>
      <point x="620" y="597" type="line" smooth="yes"/>
      <point x="620" y="683"/>
      <point x="602" y="714"/>
      <point x="508" y="714" type="curve" smooth="yes"/>
      <point x="316" y="714" type="line"/>
      <point x="316" y="635" type="line"/>
      <point x="481" y="635" type="line" smooth="yes"/>
      <point x="521" y="635"/>
      <point x="530" y="619"/>
      <point x="530" y="579" type="curve" smooth="yes"/>
      <point x="530" y="429" type="line"/>
      <point x="526" y="427" type="line"/>
      <point x="508" y="447"/>
      <point x="467" y="466"/>
      <point x="359" y="479" type="curve" smooth="yes"/>
      <point x="244" y="493"/>
      <point x="188" y="514"/>
      <point x="188" y="635" type="curve" smooth="yes"/>
      <point x="188" y="743" type="line"/>
      <point x="98" y="743" type="line"/>
      <point x="98" y="636" type="line" smooth="yes"/>
      <point x="98" y="489"/>
      <point x="155" y="448"/>
      <point x="239" y="437" type="curve"/>
      <point x="239" y="432" type="line"/>
      <point x="158" y="413"/>
      <point x="80" y="350"/>
      <point x="80" y="209" type="curve" smooth="yes"/>
      <point x="80" y="150"/>
      <point x="91" y="106"/>
      <point x="114" y="74" type="curve"/>
      <point x="-40" y="74" type="line"/>
      <point x="-40" y="48" type="line" smooth="yes"/>
      <point x="-40" y="12"/>
      <point x="-30" y="0"/>
    </contour>
  </outline>
</glyph>
<glyph name="E-adlam.medi" format="2">
  <advance width="731"/>
  <anchor x="377" y="0" name="bottom"/>
  <anchor x="373" y="666" name="top"/>
  <anchor x="435" y="557" name="vowellengthencomb-adlam.case"/>
  <outline>
    <contour>
      <point x="0" y="0" type="curve" smooth="yes"/>
      <point x="87" y="0" type="line" smooth="yes"/>
      <point x="165" y="0"/>
      <point x="191" y="22"/>
      <point x="198" y="77" type="curve"/>
      <point x="204" y="92"/>
      <point x="225" y="105"/>
      <point x="235" y="109" type="curve"/>
      <point x="240" y="109" type="line"/>
      <point x="240" y="52"/>
      <point x="283" y="0"/>
      <point x="377" y="0" type="curve" smooth="yes"/>
      <point x="493" y="0" type="line" smooth="yes"/>
      <point x="575" y="0"/>
      <point x="617" y="19"/>
      <point x="631" y="37" type="curve"/>
      <point x="636" y="37" type="line"/>
      <point x="643" y="15"/>
      <point x="659" y="0"/>
      <point x="702" y="0" type="curve" smooth="yes"/>
      <point x="731" y="0" type="line" smooth="yes"/>
      <point x="761" y="0"/>
      <point x="771" y="12"/>
      <point x="771" y="48" type="curve" smooth="yes"/>
      <point x="771" y="74" type="line"/>
      <point x="720" y="74" type="line" smooth="yes"/>
      <point x="682" y="74"/>
      <point x="676" y="90"/>
      <point x="676" y="147" type="curve" smooth="yes"/>
      <point x="676" y="276"/>
      <point x="567" y="316"/>
      <point x="511" y="326" type="curve"/>
      <point x="510" y="330" type="line"/>
      <point x="582" y="382"/>
      <point x="631" y="438"/>
      <point x="631" y="545" type="curve" smooth="yes"/>
      <point x="631" y="657"/>
      <point x="562" y="724"/>
      <point x="383" y="724" type="curve" smooth="yes"/>
      <point x="208" y="724"/>
      <point x="110" y="655"/>
      <point x="110" y="483" type="curve" smooth="yes"/>
      <point x="110" y="132" type="line" smooth="yes"/>
      <point x="110" y="90"/>
      <point x="101" y="74"/>
      <point x="60" y="74" type="curve" smooth="yes"/>
      <point x="-40" y="74" type="line"/>
      <point x="-40" y="48" type="line" smooth="yes"/>
      <point x="-40" y="12"/>
      <point x="-30" y="0"/>
    </contour>
    <contour>
      <point x="400" y="79" type="line" smooth="yes"/>
      <point x="346" y="79"/>
      <point x="318" y="97"/>
      <point x="318" y="145" type="curve" smooth="yes"/>
      <point x="318" y="199"/>
      <point x="367" y="245"/>
      <point x="405" y="264" type="curve"/>
      <point x="410" y="266"/>
      <point x="421" y="267"/>
      <point x="432" y="267" type="curve" smooth="yes"/>
      <point x="495" y="267"/>
      <point x="583" y="230"/>
      <point x="583" y="146" type="curve" smooth="yes"/>
      <point x="583" y="97"/>
      <point x="555" y="79"/>
      <point x="493" y="79" type="curve" smooth="yes"/>
    </contour>
    <contour>
      <point x="200" y="163" type="line"/>
      <point x="200" y="483" type="line" smooth="yes"/>
      <point x="200" y="608"/>
      <point x="277" y="645"/>
      <point x="383" y="645" type="curve" smooth="yes"/>
      <point x="503" y="645"/>
      <point x="538" y="597"/>
      <point x="538" y="534" type="curve" smooth="yes"/>
      <point x="538" y="456"/>
      <point x="503" y="422"/>
      <point x="396" y="350" type="curve" smooth="yes"/>
      <point x="291" y="279"/>
      <point x="260" y="243"/>
      <point x="245" y="191" type="curve"/>
      <point x="227" y="182"/>
      <point x="211" y="171"/>
      <point x="203" y="163" type="curve"/>
    </contour>
  </outline>
</glyph>
<glyph name="Ha-adlam.fina" format="2">
  <advance width="643"/>
  <anchor x="327" y="663" name="gemconsonanttop"/>
  <anchor x="331" y="663" name="top"/>
  <outline>
    <contour>
      <point x="90" y="0" type="line"/>
      <point x="293" y="0" type="line" smooth="yes"/>
      <point x="418" y="0"/>
      <point x="471" y="31"/>
      <point x="493" y="47" type="curve"/>
      <point x="498" y="47" type="line"/>
      <point x="508" y="17"/>
      <point x="529" y="0"/>
      <point x="596" y="0" type="curve" smooth="yes"/>
      <point x="643" y="0" type="line" smooth="yes"/>
      <point x="673" y="0"/>
      <point x="683" y="12"/>
      <point x="683" y="48" type="curve" smooth="yes"/>
      <point x="683" y="74" type="line"/>
      <point x="615" y="74" type="line" smooth="yes"/>
      <point x="574" y="74"/>
      <point x="565" y="90"/>
      <point x="565" y="121" type="curve" smooth="yes"/>
      <point x="565" y="158"/>
      <point x="573" y="190"/>
      <point x="573" y="249" type="curve" smooth="yes"/>
      <point x="573" y="440"/>
      <point x="471" y="508"/>
      <point x="288" y="508" type="curve" smooth="yes"/>
      <point x="231" y="508" type="line" smooth="yes"/>
      <point x="190" y="508"/>
      <point x="181" y="524"/>
      <point x="181" y="566" type="curve" smooth="yes"/>
      <point x="181" y="714" type="line"/>
      <point x="91" y="714" type="line"/>
      <point x="91" y="547" type="line" smooth="yes"/>
      <point x="91" y="461"/>
      <point x="109" y="429"/>
      <point x="204" y="429" type="curve" smooth="yes"/>
      <point x="283" y="429" type="line" smooth="yes"/>
      <point x="394" y="429"/>
      <point x="480" y="391"/>
      <point x="480" y="244" type="curve" smooth="yes"/>
      <point x="480" y="121"/>
      <point x="425" y="74"/>
      <point x="293" y="74" type="curve" smooth="yes"/>
      <point x="90" y="74" type="line"/>
    </contour>
  </outline>
</glyph>
<glyph name="Ha-adlam.init" format="2">
  <advance width="643"/>
  <anchor x="327" y="663" name="gemconsonanttop"/>
  <anchor x="331" y="663" name="top"/>
  <outline>
    <contour>
      <point x="0" y="0" type="curve" smooth="yes"/>
      <point x="293" y="0" type="line" smooth="yes"/>
      <point x="490" y="0"/>
      <point x="573" y="72"/>
      <point x="573" y="249" type="curve" smooth="yes"/>
      <point x="573" y="440"/>
      <point x="471" y="508"/>
      <point x="288" y="508" type="curve" smooth="yes"/>
      <point x="231" y="508" type="line" smooth="yes"/>
      <point x="190" y="508"/>
      <point x="181" y="524"/>
      <point x="181" y="566" type="curve" smooth="yes"/>
      <point x="181" y="714" type="line"/>
      <point x="91" y="714" type="line"/>
      <point x="91" y="547" type="line" smooth="yes"/>
      <point x="91" y="461"/>
      <point x="109" y="429"/>
      <point x="204" y="429" type="curve" smooth="yes"/>
      <point x="283" y="429" type="line" smooth="yes"/>
      <point x="394" y="429"/>
      <point x="480" y="391"/>
      <point x="480" y="244" type="curve" smooth="yes"/>
      <point x="480" y="121"/>
      <point x="425" y="74"/>
      <point x="293" y="74" type="curve" smooth="yes"/>
      <point x="-40" y="74" type="line"/>
      <point x="-40" y="48" type="line" smooth="yes"/>
      <point x="-40" y="12"/>
      <point x="-30" y="0"/>
    </contour>
  </outline>
</glyph>
<glyph name="I-adlam.init" format="2">
  <advance width="813"/>
  <anchor x="459" y="557" name="vowellengthencomb-adlam.case"/>
  <outline>
    <contour>
      <point x="401" y="-10" type="curve" smooth="yes"/>
      <point x="595" y="-10"/>
      <point x="703" y="37"/>
      <point x="703" y="233" type="curve" smooth="yes"/>
      <point x="703" y="714" type="line"/>
      <point x="613" y="714" type="line"/>
      <point x="613" y="236" type="line" smooth="yes"/>
      <point x="613" y="114"/>
      <point x="556" y="69"/>
      <point x="407" y="69" type="curve" smooth="yes"/>
      <point x="258" y="69"/>
      <point x="200" y="114"/>
      <point x="200" y="236" type="curve" smooth="yes"/>
      <point x="200" y="714" type="line"/>
      <point x="110" y="714" type="line"/>
      <point x="110" y="132" type="line" smooth="yes"/>
      <point x="110" y="90"/>
      <point x="101" y="74"/>
      <point x="60" y="74" type="curve" smooth="yes"/>
      <point x="-40" y="74" type="line"/>
      <point x="-40" y="48" type="line" smooth="yes"/>
      <point x="-40" y="13"/>
      <point x="-30" y="0"/>
      <point x="0" y="0" type="curve" smooth="yes"/>
      <point x="87" y="0" type="line" smooth="yes"/>
      <point x="138" y="0"/>
      <point x="168" y="14"/>
      <point x="179" y="39" type="curve"/>
      <point x="185" y="39" type="line"/>
      <point x="209" y="17"/>
      <point x="262" y="-10"/>
    </contour>
  </outline>
</glyph>
<glyph name="Jiim-adlam.isol" format="2">
  <advance width="927"/>
  <anchor x="448" y="0" name="bottom"/>
  <anchor x="464" y="665" name="gemconsonanttop"/>
  <anchor x="473" y="665" name="top"/>
  <outline>
    <contour>
      <point x="758" y="-54" type="line"/>
      <point x="800" y="-12"/>
      <point x="822" y="42"/>
      <point x="822" y="117" type="curve" smooth="yes"/>
      <point x="822" y="476" type="line" smooth="yes"/>
      <point x="822" y="614"/>
      <point x="765" y="687"/>
      <point x="641" y="687" type="curve" smooth="yes"/>
      <point x="533" y="687"/>
      <point x="497" y="633"/>
      <point x="486" y="613" type="curve"/>
      <point x="481" y="613" type="line"/>
      <point x="472" y="645"/>
      <point x="439" y="724"/>
      <point x="305" y="724" type="curve" smooth="yes"/>
      <point x="159" y="724"/>
      <point x="105" y="630"/>
      <point x="105" y="511" type="curve" smooth="yes"/>
      <point x="105" y="270" type="line"/>
      <point x="195" y="270" type="line"/>
      <point x="195" y="499" type="line" smooth="yes"/>
      <point x="195" y="604"/>
      <point x="238" y="645"/>
      <point x="305" y="645" type="curve" smooth="yes"/>
      <point x="369" y="645"/>
      <point x="414" y="594"/>
      <point x="414" y="486" type="curve" smooth="yes"/>
      <point x="414" y="147" type="line" smooth="yes"/>
      <point x="414" y="100"/>
      <point x="393" y="79"/>
      <point x="328" y="79" type="curve" smooth="yes"/>
      <point x="105" y="79" type="line"/>
      <point x="105" y="0" type="line"/>
      <point x="328" y="0" type="line" smooth="yes"/>
      <point x="468" y="0"/>
      <point x="504" y="42"/>
      <point x="504" y="146" type="curve" smooth="yes"/>
      <point x="504" y="452" type="line" smooth="yes"/>
      <point x="504" y="558"/>
      <point x="550" y="608"/>
      <point x="628" y="608" type="curve" smooth="yes"/>
      <point x="700" y="608"/>
      <point x="732" y="554"/>
      <point x="732" y="455" type="curve" smooth="yes"/>
      <point x="732" y="117" type="line" smooth="yes"/>
      <point x="732" y="71"/>
      <point x="719" y="22"/>
      <point x="686" y="-8" type="curve"/>
    </contour>
  </outline>
</glyph>
<glyph name="Kha-adlam.init" format="2">
  <advance width="773"/>
  <anchor x="441" y="663" name="top"/>
  <outline>
    <contour>
      <point x="0" y="0" type="curve" smooth="yes"/>
      <point x="87" y="0" type="line" smooth="yes"/>
      <point x="182" y="0"/>
      <point x="200" y="32"/>
      <point x="200" y="118" type="curve" smooth="yes"/>
      <point x="199" y="321" type="line"/>
      <point x="386" y="321" type="line"/>
      <point x="386" y="118" type="line" smooth="yes"/>
      <point x="386" y="32"/>
      <point x="404" y="0"/>
      <point x="498" y="0" type="curve" smooth="yes"/>
      <point x="733" y="0" type="line"/>
      <point x="733" y="74" type="line"/>
      <point x="526" y="74" type="line" smooth="yes"/>
      <point x="485" y="74"/>
      <point x="476" y="90"/>
      <point x="476" y="132" type="curve" smooth="yes"/>
      <point x="476" y="321" type="line"/>
      <point x="627" y="321" type="line"/>
      <point x="627" y="400" type="line"/>
      <point x="476" y="400" type="line"/>
      <point x="476" y="558" type="line"/>
      <point x="386" y="558" type="line"/>
      <point x="386" y="400" type="line"/>
      <point x="199" y="400" type="line"/>
      <point x="199" y="576" type="line" smooth="yes"/>
      <point x="199" y="619"/>
      <point x="208" y="635"/>
      <point x="249" y="635" type="curve" smooth="yes"/>
      <point x="733" y="635" type="line"/>
      <point x="733" y="714" type="line"/>
      <point x="222" y="714" type="line" smooth="yes"/>
      <point x="128" y="714"/>
      <point x="110" y="683"/>
      <point x="110" y="597" type="curve" smooth="yes"/>
      <point x="110" y="132" type="line" smooth="yes"/>
      <point x="110" y="90"/>
      <point x="101" y="74"/>
      <point x="60" y="74" type="curve" smooth="yes"/>
      <point x="-40" y="74" type="line"/>
      <point x="-40" y="48" type="line" smooth="yes"/>
      <point x="-40" y="12"/>
      <point x="-30" y="0"/>
    </contour>
  </outline>
</glyph>
<glyph name="O-adlam.medi" format="2">
  <advance width="796"/>
  <anchor x="349" y="0" name="bottom"/>
  <anchor x="364" y="663" name="top"/>
  <anchor x="399" y="557" name="vowellengthencomb-adlam.case"/>
  <outline>
    <contour>
      <point x="0" y="0" type="curve" smooth="yes"/>
      <point x="478" y="0" type="line"/>
      <point x="478" y="74" type="line"/>
      <point x="416" y="74" type="line" smooth="yes"/>
      <point x="283" y="74"/>
      <point x="170" y="143"/>
      <point x="170" y="369" type="curve" smooth="yes"/>
      <point x="170" y="569"/>
      <point x="278" y="650"/>
      <point x="402" y="650" type="curve" smooth="yes"/>
      <point x="527" y="650"/>
      <point x="614" y="593"/>
      <point x="614" y="403" type="curve" smooth="yes"/>
      <point x="614" y="118" type="line" smooth="yes"/>
      <point x="614" y="32"/>
      <point x="632" y="0"/>
      <point x="727" y="0" type="curve" smooth="yes"/>
      <point x="796" y="0" type="line" smooth="yes"/>
      <point x="826" y="0"/>
      <point x="836" y="12"/>
      <point x="836" y="48" type="curve" smooth="yes"/>
      <point x="836" y="74" type="line"/>
      <point x="754" y="74" type="line" smooth="yes"/>
      <point x="713" y="74"/>
      <point x="704" y="90"/>
      <point x="704" y="132" type="curve" smooth="yes"/>
      <point x="704" y="403" type="line" smooth="yes"/>
      <point x="704" y="647"/>
      <point x="581" y="729"/>
      <point x="405" y="729" type="curve" smooth="yes"/>
      <point x="228" y="729"/>
      <point x="75" y="627"/>
      <point x="75" y="363" type="curve" smooth="yes"/>
      <point x="75" y="222"/>
      <point x="116" y="131"/>
      <point x="181" y="79" type="curve"/>
      <point x="180" y="74" type="line"/>
      <point x="-40" y="74" type="line"/>
      <point x="-40" y="48" type="line" smooth="yes"/>
      <point x="-40" y="12"/>
      <point x="-30" y="0"/>
    </contour>
  </outline>
</glyph>
<glyph name="Sha-adlam.medi" format="2">
  <advance width="884"/>
  <anchor x="450" y="663" name="top"/>
  <outline>
    <contour>
      <point x="292" y="-10" type="curve" smooth="yes"/>
      <point x="408" y="-10"/>
      <point x="478" y="42"/>
      <point x="478" y="183" type="curve" smooth="yes"/>
      <point x="478" y="297" type="line"/>
      <point x="674" y="297" type="line"/>
      <point x="674" y="118" type="line" smooth="yes"/>
      <point x="674" y="32"/>
      <point x="692" y="0"/>
      <point x="787" y="0" type="curve" smooth="yes"/>
      <point x="884" y="0" type="line" smooth="yes"/>
      <point x="914" y="0"/>
      <point x="924" y="12"/>
      <point x="924" y="48" type="curve" smooth="yes"/>
      <point x="924" y="74" type="line"/>
      <point x="814" y="74" type="line" smooth="yes"/>
      <point x="773" y="74"/>
      <point x="764" y="90"/>
      <point x="764" y="132" type="curve" smooth="yes"/>
      <point x="764" y="596" type="line" smooth="yes"/>
      <point x="764" y="682"/>
      <point x="747" y="714"/>
      <point x="653" y="714" type="curve" smooth="yes"/>
      <point x="388" y="714" type="line"/>
      <point x="388" y="635" type="line"/>
      <point x="625" y="635" type="line" smooth="yes"/>
      <point x="665" y="635"/>
      <point x="674" y="619"/>
      <point x="674" y="577" type="curve" smooth="yes"/>
      <point x="674" y="376" type="line"/>
      <point x="478" y="376" type="line"/>
      <point x="478" y="544" type="line"/>
      <point x="388" y="544" type="line"/>
      <point x="388" y="196" type="line" smooth="yes"/>
      <point x="388" y="102"/>
      <point x="354" y="69"/>
      <point x="292" y="69" type="curve" smooth="yes"/>
      <point x="234" y="69"/>
      <point x="200" y="102"/>
      <point x="200" y="196" type="curve" smooth="yes"/>
      <point x="200" y="714" type="line"/>
      <point x="110" y="714" type="line"/>
      <point x="110" y="132" type="line" smooth="yes"/>
      <point x="110" y="90"/>
      <point x="101" y="74"/>
      <point x="60" y="74" type="curve" smooth="yes"/>
      <point x="-40" y="74" type="line"/>
      <point x="-40" y="48" type="line" smooth="yes"/>
      <point x="-40" y="12"/>
      <point x="-30" y="0"/>
      <point x="0" y="0" type="curve" smooth="yes"/>
      <point x="78" y="0" type="line" smooth="yes"/>
      <point x="122" y="0"/>
      <point x="141" y="17"/>
      <point x="148" y="37" type="curve"/>
      <point x="153" y="37" type="line"/>
      <point x="168" y="17"/>
      <point x="207" y="-10"/>
    </contour>
  </outline>
</glyph>
<glyph name="Two-way_connector" format="2">
  <advance width="450"/>
  <outline>
    <contour>
      <point x="-40" y="0" type="line"/>
      <point x="157" y="0" type="line" smooth="yes"/>
      <point x="192" y="0"/>
      <point x="211" y="7"/>
      <point x="222" y="27" type="curve"/>
      <point x="228" y="27" type="line"/>
      <point x="238" y="7"/>
      <point x="252" y="0"/>
      <point x="293" y="0" type="curve" smooth="yes"/>
      <point x="490" y="0" type="line"/>
      <point x="490" y="74" type="line"/>
      <point x="320" y="74" type="line" smooth="yes"/>
      <point x="279" y="74"/>
      <point x="270" y="90"/>
      <point x="270" y="132" type="curve" smooth="yes"/>
      <point x="270" y="714" type="line"/>
      <point x="180" y="714" type="line"/>
      <point x="180" y="132" type="line" smooth="yes"/>
      <point x="180" y="90"/>
      <point x="171" y="74"/>
      <point x="130" y="74" type="curve" smooth="yes"/>
      <point x="-40" y="74" type="line"/>
    </contour>
  </outline>
</glyph>
<glyph name="Waw-adlam.fina" format="2">
  <advance width="689"/>
  <anchor x="351" y="663" name="top"/>
  <outline>
    <contour>
      <point x="110" y="0" type="line"/>
      <point x="200" y="0" type="line"/>
      <point x="200" y="298" type="line"/>
      <point x="282" y="298" type="line" smooth="yes"/>
      <point x="339" y="298"/>
      <point x="356" y="284"/>
      <point x="367" y="273" type="curve"/>
      <point x="413" y="338" type="line"/>
      <point x="402" y="351"/>
      <point x="379" y="377"/>
      <point x="306" y="377" type="curve" smooth="yes"/>
      <point x="200" y="377" type="line"/>
      <point x="200" y="577" type="line" smooth="yes"/>
      <point x="200" y="619"/>
      <point x="209" y="635"/>
      <point x="249" y="635" type="curve" smooth="yes"/>
      <point x="489" y="635" type="line"/>
      <point x="489" y="118" type="line" smooth="yes"/>
      <point x="489" y="32"/>
      <point x="507" y="0"/>
      <point x="602" y="0" type="curve" smooth="yes"/>
      <point x="689" y="0" type="line" smooth="yes"/>
      <point x="719" y="0"/>
      <point x="729" y="12"/>
      <point x="729" y="48" type="curve" smooth="yes"/>
      <point x="729" y="74" type="line"/>
      <point x="629" y="74" type="line" smooth="yes"/>
      <point x="588" y="74"/>
      <point x="579" y="90"/>
      <point x="579" y="132" type="curve" smooth="yes"/>
      <point x="579" y="714" type="line"/>
      <point x="228" y="714" type="line" smooth="yes"/>
      <point x="128" y="714"/>
      <point x="110" y="682"/>
      <point x="110" y="596" type="curve" smooth="yes"/>
    </contour>
  </outline>
</glyph>
<glyph name="Ya-adlam.fina" format="2">
  <advance width="833"/>
  <anchor x="291" y="663" name="top"/>
  <outline>
    <contour>
      <point x="67" y="0" type="line"/>
      <point x="275" y="0" type="line" smooth="yes"/>
      <point x="407" y="0"/>
      <point x="520" y="42"/>
      <point x="520" y="199" type="curve" smooth="yes"/>
      <point x="520" y="207"/>
      <point x="520" y="212"/>
      <point x="519" y="219" type="curve"/>
      <point x="521" y="256"/>
      <point x="522" y="268"/>
      <point x="571" y="321" type="curve" smooth="yes"/>
      <point x="602" y="354"/>
      <point x="617" y="371"/>
      <point x="628" y="383" type="curve"/>
      <point x="633" y="381" type="line"/>
      <point x="633" y="118" type="line" smooth="yes"/>
      <point x="633" y="32"/>
      <point x="651" y="0"/>
      <point x="746" y="0" type="curve" smooth="yes"/>
      <point x="833" y="0" type="line" smooth="yes"/>
      <point x="863" y="0"/>
      <point x="873" y="12"/>
      <point x="873" y="48" type="curve" smooth="yes"/>
      <point x="873" y="74" type="line"/>
      <point x="773" y="74" type="line" smooth="yes"/>
      <point x="732" y="74"/>
      <point x="723" y="90"/>
      <point x="723" y="132" type="curve" smooth="yes"/>
      <point x="723" y="714" type="line"/>
      <point x="633" y="714" type="line"/>
      <point x="633" y="543" type="line" smooth="yes"/>
      <point x="633" y="494"/>
      <point x="628" y="485"/>
      <point x="561" y="414" type="curve" smooth="yes"/>
      <point x="512" y="363"/>
      <point x="497" y="345"/>
      <point x="491" y="333" type="curve"/>
      <point x="487" y="333" type="line"/>
      <point x="465" y="367"/>
      <point x="432" y="387"/>
      <point x="401" y="399" type="curve"/>
      <point x="401" y="404" type="line"/>
      <point x="431" y="416"/>
      <point x="503" y="454"/>
      <point x="503" y="554" type="curve" smooth="yes"/>
      <point x="503" y="668"/>
      <point x="425" y="714"/>
      <point x="302" y="714" type="curve" smooth="yes"/>
      <point x="241" y="714" type="line" smooth="yes"/>
      <point x="112" y="714"/>
      <point x="64" y="649"/>
      <point x="50" y="622" type="curve"/>
      <point x="110" y="575" type="line"/>
      <point x="122" y="597"/>
      <point x="154" y="635"/>
      <point x="237" y="635" type="curve" smooth="yes"/>
      <point x="302" y="635" type="line" smooth="yes"/>
      <point x="363" y="635"/>
      <point x="410" y="613"/>
      <point x="410" y="554" type="curve" smooth="yes"/>
      <point x="410" y="488"/>
      <point x="341" y="459"/>
      <point x="211" y="422" type="curve" smooth="yes"/>
      <point x="119" y="396" type="line"/>
      <point x="140" y="322" type="line"/>
      <point x="186" y="337"/>
      <point x="267" y="360"/>
      <point x="280" y="360" type="curve" smooth="yes"/>
      <point x="363" y="360"/>
      <point x="427" y="309"/>
      <point x="427" y="204" type="curve" smooth="yes"/>
      <point x="427" y="106"/>
      <point x="357" y="74"/>
      <point x="275" y="74" type="curve" smooth="yes"/>
      <point x="67" y="74" type="line"/>
    </contour>
  </outline>
</glyph>
<glyph name="Ya-adlam.init" format="2">
  <advance width="585"/>
  <anchor x="271" y="663" name="top"/>
  <outline>
    <contour>
      <point x="0" y="0" type="curve" smooth="yes"/>
      <point x="275" y="0" type="line" smooth="yes"/>
      <point x="425" y="0"/>
      <point x="520" y="42"/>
      <point x="520" y="207" type="curve" smooth="yes"/>
      <point x="520" y="350"/>
      <point x="432" y="387"/>
      <point x="401" y="399" type="curve"/>
      <point x="401" y="404" type="line"/>
      <point x="431" y="416"/>
      <point x="503" y="454"/>
      <point x="503" y="554" type="curve" smooth="yes"/>
      <point x="503" y="668"/>
      <point x="425" y="714"/>
      <point x="302" y="714" type="curve" smooth="yes"/>
      <point x="241" y="714" type="line" smooth="yes"/>
      <point x="112" y="714"/>
      <point x="64" y="649"/>
      <point x="50" y="622" type="curve"/>
      <point x="110" y="575" type="line"/>
      <point x="122" y="597"/>
      <point x="154" y="635"/>
      <point x="237" y="635" type="curve" smooth="yes"/>
      <point x="302" y="635" type="line" smooth="yes"/>
      <point x="363" y="635"/>
      <point x="410" y="613"/>
      <point x="410" y="554" type="curve" smooth="yes"/>
      <point x="410" y="488"/>
      <point x="341" y="459"/>
      <point x="211" y="422" type="curve" smooth="yes"/>
      <point x="119" y="396" type="line"/>
      <point x="140" y="322" type="line"/>
      <point x="186" y="337"/>
      <point x="267" y="360"/>
      <point x="280" y="360" type="curve" smooth="yes"/>
      <point x="363" y="360"/>
      <point x="427" y="309"/>
      <point x="427" y="204" type="curve" smooth="yes"/>
      <point x="427" y="103"/>
      <point x="372" y="74"/>
      <point x="275" y="74" type="curve" smooth="yes"/>
      <point x="-40" y="74" type="line"/>
      <point x="-40" y="48" type="line" smooth="yes"/>
      <point x="-40" y="12"/>
      <point x="-30" y="0"/>
    </contour>
  </outline>
</glyph>
<glyph name="ba-adlam.fina" format="2">
  <advance width="749"/>
  <anchor x="419" y="597" name="top"/>
  <outline>
    <contour>
      <point x="110" y="0" type="line"/>
      <point x="198" y="0" type="line"/>
      <point x="198" y="250" type="line"/>
      <point x="221" y="241"/>
      <point x="275" y="233"/>
      <point x="322" y="231" type="curve"/>
      <point x="322" y="119" type="line" smooth="yes"/>
      <point x="322" y="27"/>
      <point x="334" y="0"/>
      <point x="438" y="0" type="curve" smooth="yes"/>
      <point x="749" y="0" type="line" smooth="yes"/>
      <point x="779" y="0"/>
      <point x="789" y="12"/>
      <point x="789" y="48" type="curve" smooth="yes"/>
      <point x="789" y="74" type="line"/>
      <point x="473" y="74" type="line" smooth="yes"/>
      <point x="418" y="74"/>
      <point x="410" y="86"/>
      <point x="410" y="140" type="curve" smooth="yes"/>
      <point x="410" y="227" type="line"/>
      <point x="561" y="227"/>
      <point x="694" y="283"/>
      <point x="694" y="416" type="curve" smooth="yes"/>
      <point x="694" y="522"/>
      <point x="630" y="585"/>
      <point x="488" y="585" type="curve" smooth="yes"/>
      <point x="409" y="585"/>
      <point x="341" y="557"/>
      <point x="322" y="541" type="curve"/>
      <point x="322" y="304" type="line"/>
      <point x="275" y="306"/>
      <point x="218" y="316"/>
      <point x="198" y="323" type="curve"/>
      <point x="198" y="714" type="line"/>
      <point x="110" y="714" type="line"/>
    </contour>
    <contour>
      <point x="410" y="300" type="curve"/>
      <point x="410" y="494" type="line"/>
      <point x="420" y="502"/>
      <point x="451" y="511"/>
      <point x="488" y="511" type="curve" smooth="yes"/>
      <point x="553" y="511"/>
      <point x="603" y="481"/>
      <point x="603" y="411" type="curve" smooth="yes"/>
      <point x="603" y="334"/>
      <point x="524" y="300"/>
    </contour>
  </outline>
</glyph>
<glyph name="ba-adlam.medi" format="2">
  <advance width="749"/>
  <anchor x="419" y="597" name="top"/>
  <outline>
    <contour>
      <point x="0" y="0" type="curve" smooth="yes"/>
      <point x="85" y="0" type="line" smooth="yes"/>
      <point x="180" y="0"/>
      <point x="198" y="32"/>
      <point x="198" y="118" type="curve" smooth="yes"/>
      <point x="198" y="250" type="line"/>
      <point x="221" y="241"/>
      <point x="275" y="233"/>
      <point x="322" y="231" type="curve"/>
      <point x="322" y="119" type="line" smooth="yes"/>
      <point x="322" y="27"/>
      <point x="334" y="0"/>
      <point x="438" y="0" type="curve" smooth="yes"/>
      <point x="749" y="0" type="line" smooth="yes"/>
      <point x="779" y="0"/>
      <point x="789" y="12"/>
      <point x="789" y="48" type="curve" smooth="yes"/>
      <point x="789" y="74" type="line"/>
      <point x="473" y="74" type="line" smooth="yes"/>
      <point x="418" y="74"/>
      <point x="410" y="86"/>
      <point x="410" y="140" type="curve" smooth="yes"/>
      <point x="410" y="227" type="line"/>
      <point x="561" y="227"/>
      <point x="694" y="283"/>
      <point x="694" y="416" type="curve" smooth="yes"/>
      <point x="694" y="522"/>
      <point x="630" y="585"/>
      <point x="488" y="585" type="curve" smooth="yes"/>
      <point x="409" y="585"/>
      <point x="341" y="557"/>
      <point x="322" y="541" type="curve"/>
      <point x="322" y="304" type="line"/>
      <point x="275" y="306"/>
      <point x="218" y="316"/>
      <point x="198" y="323" type="curve"/>
      <point x="198" y="714" type="line"/>
      <point x="110" y="714" type="line"/>
      <point x="110" y="132" type="line" smooth="yes"/>
      <point x="110" y="90"/>
      <point x="101" y="74"/>
      <point x="60" y="74" type="curve" smooth="yes"/>
      <point x="-40" y="74" type="line"/>
      <point x="-40" y="48" type="line" smooth="yes"/>
      <point x="-40" y="12"/>
      <point x="-30" y="0"/>
    </contour>
    <contour>
      <point x="410" y="300" type="curve"/>
      <point x="410" y="494" type="line"/>
      <point x="420" y="502"/>
      <point x="451" y="511"/>
      <point x="488" y="511" type="curve" smooth="yes"/>
      <point x="553" y="511"/>
      <point x="603" y="481"/>
      <point x="603" y="411" type="curve" smooth="yes"/>
      <point x="603" y="334"/>
      <point x="524" y="300"/>
    </contour>
  </outline>
</glyph>
<glyph name="ba-adlam.medisol" format="2">
  <advance width="709"/>
  <anchor x="383" y="575" name="top"/>
  <outline>
    <contour>
      <point x="226" y="0" type="curve" smooth="yes"/>
      <point x="643" y="0" type="line"/>
      <point x="643" y="74" type="line"/>
      <point x="261" y="74" type="line" smooth="yes"/>
      <point x="206" y="74"/>
      <point x="198" y="86"/>
      <point x="198" y="140" type="curve" smooth="yes"/>
      <point x="198" y="216" type="line"/>
      <point x="203" y="218" type="line"/>
      <point x="227" y="203"/>
      <point x="290" y="177"/>
      <point x="382" y="177" type="curve" smooth="yes"/>
      <point x="523" y="177"/>
      <point x="654" y="243"/>
      <point x="654" y="401" type="curve" smooth="yes"/>
      <point x="654" y="531"/>
      <point x="590" y="585"/>
      <point x="474" y="585" type="curve" smooth="yes"/>
      <point x="393" y="585"/>
      <point x="346" y="557"/>
      <point x="327" y="538" type="curve"/>
      <point x="327" y="292" type="line"/>
      <point x="415" y="292" type="line"/>
      <point x="415" y="497" type="line"/>
      <point x="427" y="505"/>
      <point x="446" y="511"/>
      <point x="474" y="511" type="curve" smooth="yes"/>
      <point x="513" y="511"/>
      <point x="563" y="490"/>
      <point x="563" y="396" type="curve" smooth="yes"/>
      <point x="563" y="294"/>
      <point x="484" y="250"/>
      <point x="382" y="250" type="curve" smooth="yes"/>
      <point x="285" y="250"/>
      <point x="221" y="284"/>
      <point x="198" y="302" type="curve"/>
      <point x="198" y="575" type="line"/>
      <point x="110" y="575" type="line"/>
      <point x="110" y="119" type="line" smooth="yes"/>
      <point x="110" y="27"/>
      <point x="122" y="0"/>
    </contour>
  </outline>
</glyph>
<glyph name="chi-adlam.init" format="2">
  <advance width="709"/>
  <anchor x="363" y="565" name="top"/>
  <outline>
    <contour>
      <point x="542" y="-76" type="line"/>
      <point x="571" y="-51"/>
      <point x="644" y="29"/>
      <point x="644" y="166" type="curve" smooth="yes"/>
      <point x="644" y="362"/>
      <point x="513" y="450"/>
      <point x="453" y="486" type="curve"/>
      <point x="453" y="491" type="line"/>
      <point x="497" y="510"/>
      <point x="596" y="562"/>
      <point x="625" y="585" type="curve"/>
      <point x="585" y="651" type="line"/>
      <point x="554" y="626"/>
      <point x="418" y="554"/>
      <point x="365" y="535" type="curve"/>
      <point x="327" y="551"/>
      <point x="246" y="578"/>
      <point x="187" y="588" type="curve"/>
      <point x="174" y="516" type="line"/>
      <point x="198" y="513"/>
      <point x="249" y="502"/>
      <point x="270" y="494" type="curve"/>
      <point x="270" y="489" type="line"/>
      <point x="129" y="411"/>
      <point x="55" y="328"/>
      <point x="55" y="207" type="curve" smooth="yes"/>
      <point x="55" y="152"/>
      <point x="69" y="107"/>
      <point x="98" y="74" type="curve"/>
      <point x="-40" y="74" type="line"/>
      <point x="-40" y="48" type="line" smooth="yes"/>
      <point x="-40" y="12"/>
      <point x="-30" y="0"/>
      <point x="0" y="0" type="curve" smooth="yes"/>
      <point x="454" y="0" type="line"/>
      <point x="454" y="74" type="line"/>
      <point x="332" y="74" type="line" smooth="yes"/>
      <point x="213" y="74"/>
      <point x="146" y="122"/>
      <point x="146" y="209" type="curve" smooth="yes"/>
      <point x="146" y="320"/>
      <point x="246" y="396"/>
      <point x="363" y="450" type="curve"/>
      <point x="453" y="396"/>
      <point x="553" y="328"/>
      <point x="553" y="164" type="curve" smooth="yes"/>
      <point x="553" y="62"/>
      <point x="507" y="-1"/>
      <point x="481" y="-29" type="curve"/>
    </contour>
  </outline>
</glyph>
<glyph name="fa-adlam.isol" format="2">
  <advance width="641"/>
  <anchor x="331" y="565" name="top"/>
  <outline>
    <contour>
      <point x="110" y="-130" type="line"/>
      <point x="198" y="-130" type="line"/>
      <point x="198" y="247" type="line"/>
      <point x="222" y="285"/>
      <point x="270" y="327"/>
      <point x="360" y="327" type="curve" smooth="yes"/>
      <point x="446" y="327"/>
      <point x="480" y="279"/>
      <point x="480" y="184" type="curve" smooth="yes"/>
      <point x="480" y="102"/>
      <point x="462" y="74"/>
      <point x="388" y="74" type="curve" smooth="yes"/>
      <point x="287" y="74" type="line"/>
      <point x="287" y="0" type="line"/>
      <point x="388" y="0" type="line" smooth="yes"/>
      <point x="503" y="0"/>
      <point x="571" y="30"/>
      <point x="571" y="189" type="curve" smooth="yes"/>
      <point x="571" y="333"/>
      <point x="502" y="401"/>
      <point x="376" y="401" type="curve" smooth="yes"/>
      <point x="290" y="401"/>
      <point x="233" y="365"/>
      <point x="203" y="329" type="curve"/>
      <point x="198" y="330" type="line"/>
      <point x="198" y="435" type="line" smooth="yes"/>
      <point x="198" y="489"/>
      <point x="205" y="501"/>
      <point x="261" y="501" type="curve" smooth="yes"/>
      <point x="540" y="501" type="line"/>
      <point x="540" y="575" type="line"/>
      <point x="226" y="575" type="line" smooth="yes"/>
      <point x="122" y="575"/>
      <point x="110" y="547"/>
      <point x="110" y="456" type="curve" smooth="yes"/>
    </contour>
  </outline>
</glyph>
<glyph name="i-adlam.init" format="2">
  <advance width="722"/>
  <anchor x="361" y="565" name="top"/>
  <outline>
    <contour>
      <point x="359" y="-10" type="curve" smooth="yes"/>
      <point x="526" y="-10"/>
      <point x="612" y="43"/>
      <point x="612" y="186" type="curve" smooth="yes"/>
      <point x="612" y="575" type="line"/>
      <point x="524" y="575" type="line"/>
      <point x="524" y="216" type="line" smooth="yes"/>
      <point x="524" y="104"/>
      <point x="479" y="64"/>
      <point x="361" y="64" type="curve" smooth="yes"/>
      <point x="244" y="64"/>
      <point x="198" y="104"/>
      <point x="198" y="216" type="curve" smooth="yes"/>
      <point x="198" y="575" type="line"/>
      <point x="110" y="575" type="line"/>
      <point x="110" y="132" type="line" smooth="yes"/>
      <point x="110" y="90"/>
      <point x="101" y="74"/>
      <point x="60" y="74" type="curve" smooth="yes"/>
      <point x="-40" y="74" type="line"/>
      <point x="-40" y="48" type="line" smooth="yes"/>
      <point x="-40" y="12"/>
      <point x="-30" y="0"/>
      <point x="0" y="0" type="curve" smooth="yes"/>
      <point x="60" y="0" type="line" smooth="yes"/>
      <point x="122" y="0"/>
      <point x="149" y="19"/>
      <point x="160" y="40" type="curve"/>
      <point x="165" y="40" type="line"/>
      <point x="188" y="19"/>
      <point x="242" y="-10"/>
    </contour>
  </outline>
</glyph>
<glyph name="ra-adlam.isol" format="2">
  <advance width="649"/>
  <anchor x="357" y="640" name="top"/>
  <outline>
    <contour>
      <point x="226" y="0" type="curve" smooth="yes"/>
      <point x="573" y="0" type="line"/>
      <point x="573" y="74" type="line"/>
      <point x="261" y="74" type="line" smooth="yes"/>
      <point x="205" y="74"/>
      <point x="198" y="86"/>
      <point x="198" y="140" type="curve" smooth="yes"/>
      <point x="198" y="265" type="line"/>
      <point x="203" y="267" type="line"/>
      <point x="221" y="236"/>
      <point x="271" y="203"/>
      <point x="363" y="203" type="curve" smooth="yes"/>
      <point x="491" y="203"/>
      <point x="574" y="250"/>
      <point x="574" y="414" type="curve" smooth="yes"/>
      <point x="574" y="575" type="line"/>
      <point x="486" y="575" type="line"/>
      <point x="486" y="416" type="line" smooth="yes"/>
      <point x="486" y="307"/>
      <point x="432" y="277"/>
      <point x="357" y="277" type="curve" smooth="yes"/>
      <point x="253" y="277"/>
      <point x="207" y="327"/>
      <point x="198" y="360" type="curve"/>
      <point x="198" y="714" type="line"/>
      <point x="110" y="714" type="line"/>
      <point x="110" y="119" type="line" smooth="yes"/>
      <point x="110" y="27"/>
      <point x="122" y="0"/>
    </contour>
  </outline>
</glyph>
<glyph name="sinnyiiyhe-adlam.init" format="2">
  <advance width="885"/>
  <anchor x="445" y="2" name="bottom"/>
  <anchor x="447" y="565" name="gemconsonanttop"/>
  <anchor x="443" y="565" name="top"/>
  <outline>
    <contour>
      <point x="292" y="-10" type="curve" smooth="yes"/>
      <point x="384" y="-10"/>
      <point x="423" y="30"/>
      <point x="440" y="73" type="curve"/>
      <point x="446" y="73" type="line"/>
      <point x="464" y="27"/>
      <point x="504" y="-10"/>
      <point x="587" y="-10" type="curve" smooth="yes"/>
      <point x="694" y="-10"/>
      <point x="775" y="41"/>
      <point x="775" y="184" type="curve" smooth="yes"/>
      <point x="775" y="575" type="line"/>
      <point x="687" y="575" type="line"/>
      <point x="687" y="203" type="line" smooth="yes"/>
      <point x="687" y="102"/>
      <point x="652" y="64"/>
      <point x="589" y="64" type="curve" smooth="yes"/>
      <point x="529" y="64"/>
      <point x="487" y="102"/>
      <point x="487" y="192" type="curve" smooth="yes"/>
      <point x="487" y="575" type="line"/>
      <point x="399" y="575" type="line"/>
      <point x="399" y="192" type="line" smooth="yes"/>
      <point x="399" y="102"/>
      <point x="361" y="64"/>
      <point x="296" y="64" type="curve" smooth="yes"/>
      <point x="232" y="64"/>
      <point x="198" y="98"/>
      <point x="198" y="201" type="curve" smooth="yes"/>
      <point x="198" y="666" type="line"/>
      <point x="110" y="666" type="line"/>
      <point x="110" y="132" type="line" smooth="yes"/>
      <point x="110" y="90"/>
      <point x="101" y="74"/>
      <point x="60" y="74" type="curve" smooth="yes"/>
      <point x="-40" y="74" type="line"/>
      <point x="-40" y="48" type="line" smooth="yes"/>
      <point x="-40" y="12"/>
      <point x="-30" y="0"/>
      <point x="0" y="0" type="curve" smooth="yes"/>
      <point x="70" y="0" type="line" smooth="yes"/>
      <point x="127" y="0"/>
      <point x="142" y="26"/>
      <point x="148" y="40" type="curve"/>
      <point x="153" y="40" type="line"/>
      <point x="164" y="27"/>
      <point x="201" y="-10"/>
    </contour>
  </outline>
</glyph>
<glyph name="two-way_connector" format="2">
  <advance width="450"/>
  <outline>
    <contour>
      <point x="-40" y="0" type="line"/>
      <point x="157" y="0" type="line" smooth="yes"/>
      <point x="192" y="0"/>
      <point x="211" y="7"/>
      <point x="222" y="27" type="curve"/>
      <point x="228" y="27" type="line"/>
      <point x="238" y="7"/>
      <point x="252" y="0"/>
      <point x="293" y="0" type="curve" smooth="yes"/>
      <point x="490" y="0" type="line"/>
      <point x="490" y="74" type="line"/>
      <point x="319" y="74" type="line" smooth="yes"/>
      <point x="278" y="74"/>
      <point x="269" y="90"/>
      <point x="269" y="132" type="curve" smooth="yes"/>
      <point x="269" y="575" type="line"/>
      <point x="181" y="575" type="line"/>
      <point x="181" y="132" type="line" smooth="yes"/>
      <point x="181" y="90"/>
      <point x="172" y="74"/>
      <point x="131" y="74" type="curve" smooth="yes"/>
      <point x="-40" y="74" type="line"/>
    </contour>
  </outline>
</glyph>
<glyph name="twoway-connector" format="2">
  <advance width="245"/>
  <outline>
    <contour>
      <point x="0" y="0" type="curve" smooth="yes"/>
      <point x="245" y="0" type="line" smooth="yes"/>
      <point x="275" y="0"/>
      <point x="285" y="12"/>
      <point x="285" y="48" type="curve" smooth="yes"/>
      <point x="285" y="74" type="line"/>
      <point x="-40" y="74" type="line"/>
      <point x="-40" y="48" type="line" smooth="yes"/>
      <point x="-40" y="12"/>
      <point x="-30" y="0"/>
    </contour>
  </outline>
</glyph>
<glyph name="ya-adlam.medi" format="2">
  <advance width="533"/>
  <anchor x="246" y="565" name="top"/>
  <outline>
    <contour>
      <point x="0" y="0" type="curve" smooth="yes"/>
      <point x="266" y="0" type="line" smooth="yes"/>
      <point x="380" y="0"/>
      <point x="410" y="31"/>
      <point x="418" y="40" type="curve"/>
      <point x="423" y="40" type="line"/>
      <point x="427" y="19"/>
      <point x="445" y="0"/>
      <point x="493" y="0" type="curve" smooth="yes"/>
      <point x="533" y="0" type="line" smooth="yes"/>
      <point x="563" y="0"/>
      <point x="573" y="12"/>
      <point x="573" y="48" type="curve" smooth="yes"/>
      <point x="573" y="74" type="line"/>
      <point x="508" y="74" type="line" smooth="yes"/>
      <point x="462" y="74"/>
      <point x="458" y="88"/>
      <point x="458" y="156" type="curve" smooth="yes"/>
      <point x="458" y="261"/>
      <point x="391" y="294"/>
      <point x="357" y="304" type="curve"/>
      <point x="357" y="309" type="line"/>
      <point x="391" y="321"/>
      <point x="445" y="357"/>
      <point x="445" y="440" type="curve" smooth="yes"/>
      <point x="445" y="539"/>
      <point x="379" y="575"/>
      <point x="266" y="575" type="curve" smooth="yes"/>
      <point x="69" y="575" type="line"/>
      <point x="69" y="501" type="line"/>
      <point x="254" y="501" type="line" smooth="yes"/>
      <point x="314" y="501"/>
      <point x="354" y="484"/>
      <point x="354" y="431" type="curve" smooth="yes"/>
      <point x="354" y="381"/>
      <point x="323" y="370"/>
      <point x="272" y="358" type="curve" smooth="yes"/>
      <point x="85" y="315" type="line"/>
      <point x="104" y="241" type="line"/>
      <point x="149" y="254"/>
      <point x="229" y="273"/>
      <point x="255" y="273" type="curve" smooth="yes"/>
      <point x="312" y="273"/>
      <point x="367" y="236"/>
      <point x="367" y="158" type="curve" smooth="yes"/>
      <point x="367" y="87"/>
      <point x="329" y="74"/>
      <point x="266" y="74" type="curve" smooth="yes"/>
      <point x="-40" y="74" type="line"/>
      <point x="-40" y="48" type="line" smooth="yes"/>
      <point x="-40" y="12"/>
      <point x="-30" y="0"/>
    </contour>
  </outline>
</glyph>
